<mxfile host="Electron" agent="Mozilla/5.0 (X11; Linux x86_64) AppleWebKit/537.36 (KHTML, like Gecko) draw.io/24.7.17 Chrome/128.0.6613.36 Electron/32.0.1 Safari/537.36" version="24.7.17">
  <diagram name="Page-1" id="L8HgYFLzfneuWHU7ppSS">
    <mxGraphModel dx="446" dy="411" grid="1" gridSize="10" guides="1" tooltips="1" connect="1" arrows="1" fold="1" page="1" pageScale="1" pageWidth="850" pageHeight="1100" math="0" shadow="0">
      <root>
        <mxCell id="0" />
        <mxCell id="1" parent="0" />
        <mxCell id="cNow1WQmDCVTFzCeLtUg-1" value="deployment Network Optimisation &amp;amp; Visualisation" style="verticalAlign=top;align=left;shape=cube;size=10;direction=south;fontStyle=0;html=1;boundedLbl=1;spacingLeft=5;whiteSpace=wrap;" parent="1" vertex="1">
          <mxGeometry x="120" y="20" width="960" height="700" as="geometry" />
        </mxCell>
        <mxCell id="cNow1WQmDCVTFzCeLtUg-2" value="&amp;lt;&amp;lt;device&amp;gt;&amp;gt; Raspberry Pi" style="verticalAlign=top;align=center;shape=cube;size=10;direction=south;html=1;boundedLbl=1;spacingLeft=5;whiteSpace=wrap;" parent="cNow1WQmDCVTFzCeLtUg-1" vertex="1">
          <mxGeometry width="910" height="620" relative="1" as="geometry">
            <mxPoint x="20" y="70" as="offset" />
          </mxGeometry>
        </mxCell>
        <mxCell id="cNow1WQmDCVTFzCeLtUg-3" value="Docker" style="verticalAlign=top;align=center;shape=cube;size=10;direction=south;html=1;boundedLbl=1;spacingLeft=5;whiteSpace=wrap;" parent="cNow1WQmDCVTFzCeLtUg-1" vertex="1">
          <mxGeometry width="880" height="570" relative="1" as="geometry">
            <mxPoint x="30" y="110" as="offset" />
          </mxGeometry>
        </mxCell>
        <mxCell id="cNow1WQmDCVTFzCeLtUg-4" value="&amp;lt;&amp;lt;container&amp;gt;&amp;gt; web-server (nginx)" style="verticalAlign=top;align=center;shape=cube;size=10;direction=south;html=1;boundedLbl=1;spacingLeft=5;whiteSpace=wrap;" parent="cNow1WQmDCVTFzCeLtUg-1" vertex="1">
          <mxGeometry width="390" height="390" relative="1" as="geometry">
            <mxPoint x="65" y="200" as="offset" />
          </mxGeometry>
        </mxCell>
        <mxCell id="cNow1WQmDCVTFzCeLtUg-9" value="" style="edgeStyle=orthogonalEdgeStyle;rounded=0;orthogonalLoop=1;jettySize=auto;html=1;dashed=1;endArrow=open;endFill=0;" parent="cNow1WQmDCVTFzCeLtUg-1" source="cNow1WQmDCVTFzCeLtUg-5" target="cNow1WQmDCVTFzCeLtUg-7" edge="1">
          <mxGeometry relative="1" as="geometry" />
        </mxCell>
        <mxCell id="cNow1WQmDCVTFzCeLtUg-10" value="&amp;lt;&amp;lt;manifests&amp;gt;&amp;gt;" style="edgeLabel;html=1;align=center;verticalAlign=middle;resizable=0;points=[];" parent="cNow1WQmDCVTFzCeLtUg-9" vertex="1" connectable="0">
          <mxGeometry x="-0.4067" relative="1" as="geometry">
            <mxPoint x="44" y="16" as="offset" />
          </mxGeometry>
        </mxCell>
        <mxCell id="cNow1WQmDCVTFzCeLtUg-5" value="&amp;lt;&amp;lt;artifact&amp;gt;&amp;gt;&lt;br&gt;&lt;br&gt;&lt;b&gt;bundle.js&lt;/b&gt;" style="html=1;align=center;verticalAlign=middle;dashed=0;whiteSpace=wrap;" parent="cNow1WQmDCVTFzCeLtUg-1" vertex="1">
          <mxGeometry x="101.65" y="320" width="108.35" height="60" as="geometry" />
        </mxCell>
        <mxCell id="cNow1WQmDCVTFzCeLtUg-6" value="&amp;lt;&amp;lt;artifact&amp;gt;&amp;gt;&lt;br&gt;&lt;br&gt;&lt;b&gt;nginx.conf&lt;/b&gt;" style="html=1;align=center;verticalAlign=middle;dashed=0;whiteSpace=wrap;" parent="cNow1WQmDCVTFzCeLtUg-1" vertex="1">
          <mxGeometry x="280" y="320" width="106.71" height="60" as="geometry" />
        </mxCell>
        <mxCell id="cNow1WQmDCVTFzCeLtUg-7" value="WebApp" style="html=1;dropTarget=0;whiteSpace=wrap;" parent="cNow1WQmDCVTFzCeLtUg-1" vertex="1">
          <mxGeometry x="100.83000000000001" y="460" width="110" height="60" as="geometry" />
        </mxCell>
        <mxCell id="cNow1WQmDCVTFzCeLtUg-8" value="" style="shape=module;jettyWidth=8;jettyHeight=4;" parent="cNow1WQmDCVTFzCeLtUg-7" vertex="1">
          <mxGeometry x="1" width="20" height="20" relative="1" as="geometry">
            <mxPoint x="-27" y="7" as="offset" />
          </mxGeometry>
        </mxCell>
        <mxCell id="cNow1WQmDCVTFzCeLtUg-11" value="&amp;lt;&amp;lt;container&amp;gt;&amp;gt; backend (FastAPI)" style="verticalAlign=top;align=center;shape=cube;size=10;direction=south;html=1;boundedLbl=1;spacingLeft=5;whiteSpace=wrap;" parent="cNow1WQmDCVTFzCeLtUg-1" vertex="1">
          <mxGeometry width="300" height="390" relative="1" as="geometry">
            <mxPoint x="570" y="200" as="offset" />
          </mxGeometry>
        </mxCell>
        <mxCell id="cNow1WQmDCVTFzCeLtUg-13" value="&amp;lt;&amp;lt;artifact&amp;gt;&amp;gt;&lt;br&gt;&lt;br&gt;&lt;b&gt;main.py,&amp;nbsp;&lt;/b&gt;&lt;b style=&quot;background-color: initial;&quot;&gt;*.py&lt;/b&gt;" style="html=1;align=center;verticalAlign=middle;dashed=0;whiteSpace=wrap;" parent="cNow1WQmDCVTFzCeLtUg-1" vertex="1">
          <mxGeometry x="650" y="330" width="130" height="60" as="geometry" />
        </mxCell>
        <mxCell id="cNow1WQmDCVTFzCeLtUg-14" value="Optimisation&lt;div&gt;Backend&lt;/div&gt;" style="html=1;dropTarget=0;whiteSpace=wrap;" parent="cNow1WQmDCVTFzCeLtUg-1" vertex="1">
          <mxGeometry x="650" y="480" width="130" height="60" as="geometry" />
        </mxCell>
        <mxCell id="cNow1WQmDCVTFzCeLtUg-15" value="" style="shape=module;jettyWidth=8;jettyHeight=4;" parent="cNow1WQmDCVTFzCeLtUg-14" vertex="1">
          <mxGeometry x="1" width="20" height="20" relative="1" as="geometry">
            <mxPoint x="-27" y="7" as="offset" />
          </mxGeometry>
        </mxCell>
        <mxCell id="cNow1WQmDCVTFzCeLtUg-16" value="" style="edgeStyle=orthogonalEdgeStyle;rounded=0;orthogonalLoop=1;jettySize=auto;html=1;dashed=1;endArrow=open;endFill=0;exitX=0.5;exitY=1;exitDx=0;exitDy=0;entryX=0.5;entryY=0;entryDx=0;entryDy=0;" parent="cNow1WQmDCVTFzCeLtUg-1" edge="1">
          <mxGeometry relative="1" as="geometry">
            <mxPoint x="714.58" y="390" as="sourcePoint" />
            <mxPoint x="714.58" y="480" as="targetPoint" />
          </mxGeometry>
        </mxCell>
        <mxCell id="cNow1WQmDCVTFzCeLtUg-17" value="&amp;lt;&amp;lt;manifests&amp;gt;&amp;gt;" style="edgeLabel;html=1;align=center;verticalAlign=middle;resizable=0;points=[];" parent="cNow1WQmDCVTFzCeLtUg-16" vertex="1" connectable="0">
          <mxGeometry x="-0.4067" relative="1" as="geometry">
            <mxPoint x="45" y="13" as="offset" />
          </mxGeometry>
        </mxCell>
        <mxCell id="cNow1WQmDCVTFzCeLtUg-37" style="edgeStyle=orthogonalEdgeStyle;rounded=0;orthogonalLoop=1;jettySize=auto;html=1;exitX=0;exitY=0;exitDx=190;exitDy=0;exitPerimeter=0;entryX=0.489;entryY=0.996;entryDx=0;entryDy=0;entryPerimeter=0;endArrow=none;endFill=0;" parent="cNow1WQmDCVTFzCeLtUg-1" source="cNow1WQmDCVTFzCeLtUg-4" target="cNow1WQmDCVTFzCeLtUg-11" edge="1">
          <mxGeometry relative="1" as="geometry" />
        </mxCell>
        <mxCell id="cNow1WQmDCVTFzCeLtUg-38" value="HTTP, WebSocket&amp;nbsp;&lt;div&gt;(proxy_pass)&lt;div&gt;docker network&lt;/div&gt;&lt;/div&gt;" style="edgeLabel;html=1;align=center;verticalAlign=middle;resizable=0;points=[];" parent="cNow1WQmDCVTFzCeLtUg-37" vertex="1" connectable="0">
          <mxGeometry x="0.1648" relative="1" as="geometry">
            <mxPoint x="-12" y="-31" as="offset" />
          </mxGeometry>
        </mxCell>
      </root>
    </mxGraphModel>
  </diagram>
</mxfile>
